<svg width="53" height="52" viewBox="0 0 53 52" fill="none" xmlns="http://www.w3.org/2000/svg">
<path d="M33 19.5C29.4101 19.5 26.5 22.4101 26.5 26C26.5 29.5899 29.4101 32.5 33 32.5C36.5899 32.5 39.5 29.5899 39.5 26C39.5 22.4101 36.5899 19.5 33 19.5ZM33 19.5C36.5899 19.5 39.5 16.5899 39.5 13C39.5 9.41015 36.5899 6.5 33 6.5H20C16.4101 6.5 13.5 9.41015 13.5 13C13.5 16.5899 16.4101 19.5 20 19.5M33 19.5H20M20 19.5C18.2761 19.5 16.6228 20.1848 15.4038 21.4038C14.1848 22.6228 13.5 24.2761 13.5 26C13.5 27.7239 14.1848 29.3772 15.4038 30.5962C16.6228 31.8152 18.2761 32.5 20 32.5M20 32.5H26.5M20 32.5C18.7144 32.5 17.4577 32.8812 16.3888 33.5954C15.3199 34.3097 14.4868 35.3248 13.9948 36.5126C13.5028 37.7003 13.3741 39.0072 13.6249 40.2681C13.8757 41.529 14.4948 42.6872 15.4038 43.5962C16.3129 44.5052 17.471 45.1243 18.7319 45.3751C19.9928 45.6259 21.2997 45.4972 22.4874 45.0052C23.6752 44.5132 24.6903 43.6801 25.4046 42.6112C26.1188 41.5423 26.5 40.2856 26.5 39V6.5" stroke="white" stroke-width="3" stroke-linecap="round" stroke-linejoin="round"/>
</svg>
