<svg width="53" height="52" viewBox="0 0 53 52" fill="none" xmlns="http://www.w3.org/2000/svg">
<path d="M17.8333 43.3333L26.5 23.8333M23.6833 30.3333C24.6302 33.0698 26.7817 34.6667 29.2083 34.6667C33.6955 34.6667 37.3333 31.2997 37.3333 26C37.3352 24.418 36.9905 22.8547 36.3236 21.4201C35.6566 19.9855 34.6835 18.7144 33.4727 17.6962C32.2619 16.6779 30.8428 15.9372 29.3151 15.5261C27.7874 15.115 26.1882 15.0435 24.6299 15.3166C23.0716 15.5897 21.592 16.2008 20.2952 17.1069C18.9983 18.0131 17.9157 19.1922 17.1233 20.5615C16.331 21.9309 15.8481 23.4571 15.7088 25.033C15.5694 26.6089 15.7769 28.1962 16.3167 29.6833M46 26C46 36.7696 37.2696 45.5 26.5 45.5C15.7304 45.5 7 36.7696 7 26C7 15.2304 15.7304 6.5 26.5 6.5C37.2696 6.5 46 15.2304 46 26Z" stroke="white" stroke-width="3" stroke-linecap="round" stroke-linejoin="round"/>
</svg>
