<svg width="52" height="52" viewBox="0 0 52 52" fill="none" xmlns="http://www.w3.org/2000/svg">
<path d="M19.5 41.1663C10.1833 44.1996 10.1833 35.7496 6.5 34.6663M32.5 45.4996V37.9163C32.5 35.7496 32.7167 34.883 31.4167 33.583C37.4833 32.933 43.3333 30.5497 43.3333 20.583C43.3307 17.9937 42.3205 15.5072 40.5167 13.6497C41.3627 11.4006 41.2848 8.90818 40.3 6.71632C40.3 6.71632 37.9167 6.06632 32.7167 9.53298C28.3123 8.38592 23.6876 8.38592 19.2833 9.53298C14.0833 6.06632 11.7 6.71632 11.7 6.71632C10.7152 8.90818 10.6373 11.4006 11.4833 13.6497C9.67948 15.5072 8.6693 17.9937 8.66667 20.583C8.66667 30.5497 14.5167 32.933 20.5833 33.583C19.2833 34.883 19.2833 36.183 19.5 37.9163V45.4996" stroke="white" stroke-width="3" stroke-linecap="round" stroke-linejoin="round"/>
</svg>
