<svg width="20" height="20" viewBox="0 0 20 20" fill="none" xmlns="http://www.w3.org/2000/svg">
<path fill-rule="evenodd" clip-rule="evenodd" d="M3.33329 5.50065V14.5225C4.26275 14.1753 5.25034 13.9954 6.24996 13.9954C7.24958 13.9954 8.23717 14.1753 9.16663 14.5225V5.50065C8.25975 5.05942 7.26257 4.82878 6.24996 4.82878C5.23735 4.82878 4.24017 5.05942 3.33329 5.50065ZM10.8333 5.50065V14.5225C11.7628 14.1753 12.7503 13.9954 13.75 13.9954C14.7496 13.9954 15.7372 14.1753 16.6666 14.5225V5.50065C15.7598 5.05942 14.7626 4.82878 13.75 4.82878C12.7373 4.82878 11.7402 5.05942 10.8333 5.50065ZM9.99996 4.05354C8.83878 3.4684 7.55462 3.16211 6.24996 3.16211C4.78715 3.16211 3.35012 3.54716 2.08329 4.27856C1.82546 4.42742 1.66663 4.70253 1.66663 5.00025V15.8336C1.66663 16.1313 1.82546 16.4064 2.08329 16.5553C2.34113 16.7041 2.65879 16.7041 2.91663 16.5553C3.93009 15.9702 5.07971 15.6621 6.24996 15.6621C7.4202 15.6621 8.56983 15.9702 9.58329 16.5553C9.84113 16.7041 10.1588 16.7041 10.4166 16.5553C11.4301 15.9702 12.5797 15.6621 13.75 15.6621C14.9202 15.6621 16.0698 15.9702 17.0833 16.5553C17.3411 16.7041 17.6588 16.7041 17.9166 16.5553C18.1745 16.4064 18.3333 16.1313 18.3333 15.8336V5.00025C18.3333 4.70253 18.1745 4.42742 17.9166 4.27856C16.6498 3.54716 15.2128 3.16211 13.75 3.16211C12.4453 3.16211 11.1611 3.4684 9.99996 4.05354Z" fill="#205BF1"/>
</svg>
