<svg width="20" height="20" viewBox="0 0 20 20" fill="none" xmlns="http://www.w3.org/2000/svg">
<path fill-rule="evenodd" clip-rule="evenodd" d="M9.16671 3.33366C8.70647 3.33366 8.33337 3.70675 8.33337 4.16699C8.33337 4.62723 8.70647 5.00033 9.16671 5.00033H10.8334C11.2936 5.00033 11.6667 4.62723 11.6667 4.16699C11.6667 3.70675 11.2936 3.33366 10.8334 3.33366H9.16671ZM6.80896 3.33366C7.15216 2.36267 8.07819 1.66699 9.16671 1.66699H10.8334C11.9219 1.66699 12.8479 2.36267 13.1911 3.33366H14.1667C14.8297 3.33366 15.4656 3.59705 15.9345 4.06589C16.4033 4.53473 16.6667 5.17062 16.6667 5.83366V15.8337C16.6667 16.4967 16.4033 17.1326 15.9345 17.6014C15.4656 18.0703 14.8297 18.3337 14.1667 18.3337H5.83337C5.17033 18.3337 4.53445 18.0703 4.06561 17.6014C3.59677 17.1326 3.33337 16.4967 3.33337 15.8337V5.83366C3.33337 5.17062 3.59677 4.53473 4.06561 4.06589C4.53445 3.59705 5.17033 3.33366 5.83337 3.33366H6.80896ZM6.80896 5.00033H5.83337C5.61236 5.00033 5.4004 5.08812 5.24412 5.2444C5.08784 5.40068 5.00004 5.61265 5.00004 5.83366V15.8337C5.00004 16.0547 5.08784 16.2666 5.24412 16.4229C5.4004 16.5792 5.61236 16.667 5.83337 16.667H14.1667C14.3877 16.667 14.5997 16.5792 14.756 16.4229C14.9122 16.2666 15 16.0547 15 15.8337V5.83366C15 5.61265 14.9122 5.40068 14.756 5.2444C14.5997 5.08812 14.3877 5.00033 14.1667 5.00033H13.1911C12.8479 5.97132 11.9219 6.66699 10.8334 6.66699H9.16671C8.07819 6.66699 7.15216 5.97132 6.80896 5.00033ZM7.50004 9.16699C7.96028 9.16699 8.33337 9.54009 8.33337 10.0003V14.167C8.33337 14.6272 7.96028 15.0003 7.50004 15.0003C7.0398 15.0003 6.66671 14.6272 6.66671 14.167V10.0003C6.66671 9.54009 7.0398 9.16699 7.50004 9.16699ZM12.5 10.8337C12.9603 10.8337 13.3334 11.2068 13.3334 11.667V14.167C13.3334 14.6272 12.9603 15.0003 12.5 15.0003C12.0398 15.0003 11.6667 14.6272 11.6667 14.167V11.667C11.6667 11.2068 12.0398 10.8337 12.5 10.8337ZM10 12.5003C10.4603 12.5003 10.8334 12.8734 10.8334 13.3337V14.167C10.8334 14.6272 10.4603 15.0003 10 15.0003C9.5398 15.0003 9.16671 14.6272 9.16671 14.167V13.3337C9.16671 12.8734 9.5398 12.5003 10 12.5003Z" fill="white"/>
</svg>
