<svg width="24" height="24" viewBox="0 0 24 24" fill="none" xmlns="http://www.w3.org/2000/svg">
<path fill-rule="evenodd" clip-rule="evenodd" d="M19.2814 3.87973C19.367 3.85607 19.451 3.83306 19.5336 3.81043C20.2554 3.61271 20.8715 3.44394 21.5244 3.12874C21.7014 3.03289 21.9084 2.98971 22.1214 3.01575C22.6231 3.07707 23.0001 3.503 23.0001 4.00836V4.00936C23.0001 4.10124 22.9875 4.19119 22.9636 4.27716C22.771 5.02827 22.2635 6.06034 21.8659 6.84082C21.7632 7.04239 21.6687 7.22514 21.5821 7.3927C21.4832 7.58418 21.3945 7.75581 21.3154 7.913C21.2571 8.02899 21.213 8.11972 21.182 8.18717C21.1742 9.48901 20.9951 10.7844 20.6492 12.04L20.6478 12.0448C19.4203 16.4145 16.2065 19.3456 12.3131 20.4767L12.3129 20.4767C8.8769 21.4741 4.99812 20.7723 1.52153 18.8774C1.11374 18.6551 0.912642 18.1814 1.03606 17.7336C1.15947 17.2859 1.57491 16.9821 2.039 17.0001C3.44502 17.0548 4.6941 16.7018 5.94842 16.0579C4.65017 15.2557 3.71768 14.3207 3.07835 13.3106C2.19621 11.9168 1.91904 10.4542 1.9319 9.15186C1.94469 7.85718 2.24338 6.7044 2.53097 5.88524C2.67574 5.47288 2.82037 5.13753 2.93066 4.90187C2.98588 4.78385 3.03275 4.69029 3.06707 4.62399C3.08423 4.59083 3.09829 4.56444 3.1087 4.54517L3.12155 4.52164L3.12581 4.51395L3.12739 4.51113L3.12803 4.50999C3.12831 4.50949 3.12858 4.50901 4.0001 4.99936L3.12858 4.50901C3.29619 4.21109 3.60438 4.01944 3.9457 4.00084C4.28703 3.98224 4.61421 4.13929 4.8132 4.41724C6.29896 6.49251 8.49453 7.7626 10.9998 7.97193C10.9883 5.86667 12.3127 4.05856 14.2694 3.32586C15.8937 2.71766 17.8162 2.64719 19.2814 3.87973ZM4.3005 6.90562C4.10579 7.54169 3.94013 8.32837 3.93181 9.17161C3.92191 10.1734 4.13337 11.2378 4.7683 12.241C5.40179 13.2419 6.50381 14.2561 8.39974 15.0827C8.73518 15.2289 8.96396 15.5467 8.99621 15.9112C9.02847 16.2757 8.85905 16.6287 8.5545 16.8316C7.60281 17.4656 6.62154 18.0197 5.56931 18.4099C7.72357 19.0392 9.85922 19.1064 11.7551 18.5561M4.3005 6.90562C6.314 8.94734 9.03725 10.0755 12.0257 9.99903C12.5678 9.98516 13.0001 9.54168 13.0001 8.99936V7.99936H13.0002L13 7.98564C12.9831 6.75447 13.7462 5.65739 14.9708 5.19886C16.3614 4.67813 17.5144 4.83054 18.2517 5.66258C18.509 5.95295 18.911 6.06828 19.2831 5.95847C19.4914 5.89702 19.7106 5.83719 19.938 5.77515C20.0242 5.75162 20.1116 5.72777 20.2 5.7034C20.1617 5.77965 20.1229 5.85623 20.0838 5.9329C19.9951 6.10708 19.9026 6.28625 19.8145 6.45684C19.7078 6.66338 19.6077 6.85733 19.5286 7.01459C19.454 7.16299 19.384 7.30627 19.3312 7.42683C19.3052 7.48615 19.2762 7.55591 19.2521 7.62691C19.2516 7.62813 19.2512 7.62954 19.2506 7.63111C19.2363 7.67282 19.1811 7.83393 19.1821 8.0269C19.1886 9.20239 19.0337 10.3732 18.7216 11.5065C17.6906 15.1733 15.0211 17.6072 11.7553 18.556" fill="#1F2025"/>
</svg>
